<svg id="visual" viewBox="0 0 900 600" width="900" height="600" xmlns="http://www.w3.org/2000/svg" xmlns:xlink="http://www.w3.org/1999/xlink" version="1.1"><rect x="0" y="0" width="900" height="600" fill="#131313"></rect><defs><linearGradient id="grad1_0" x1="33.3%" y1="100%" x2="100%" y2="0%"><stop offset="20%" stop-color="#363636" stop-opacity="1"></stop><stop offset="80%" stop-color="#363636" stop-opacity="1"></stop></linearGradient></defs><defs><linearGradient id="grad1_1" x1="33.3%" y1="100%" x2="100%" y2="0%"><stop offset="20%" stop-color="#363636" stop-opacity="1"></stop><stop offset="80%" stop-color="#131313" stop-opacity="1"></stop></linearGradient></defs><defs><linearGradient id="grad2_0" x1="0%" y1="100%" x2="66.7%" y2="0%"><stop offset="20%" stop-color="#363636" stop-opacity="1"></stop><stop offset="80%" stop-color="#363636" stop-opacity="1"></stop></linearGradient></defs><defs><linearGradient id="grad2_1" x1="0%" y1="100%" x2="66.7%" y2="0%"><stop offset="20%" stop-color="#131313" stop-opacity="1"></stop><stop offset="80%" stop-color="#363636" stop-opacity="1"></stop></linearGradient></defs><g transform="translate(900, 600)"><path d="M-405.6 0C-406 -59.4 -406.5 -118.7 -374.7 -155.2C-343 -191.7 -279.2 -205.3 -239.7 -239.7C-200.2 -274.1 -185.1 -329.2 -149.2 -360.3C-113.4 -391.4 -56.7 -398.5 0 -405.6L0 0Z" fill="#242424"></path><path d="M-202.8 0C-203 -29.7 -203.2 -59.4 -187.4 -77.6C-171.5 -95.9 -139.6 -102.7 -119.9 -119.9C-100.1 -137 -92.6 -164.6 -74.6 -180.2C-56.7 -195.7 -28.3 -199.3 0 -202.8L0 0Z" fill="#363636"></path></g><g transform="translate(0, 0)"><path d="M405.6 0C345 33.3 284.4 66.7 264.2 109.4C244 152.2 264.2 204.4 253.9 253.9C243.5 303.3 202.6 349.9 155.2 374.7C107.8 399.6 53.9 402.6 0 405.6L0 0Z" fill="#242424"></path><path d="M202.8 0C172.5 16.7 142.2 33.3 132.1 54.7C122 76.1 132.1 102.2 126.9 126.9C121.8 151.6 101.3 175 77.6 187.4C53.9 199.8 27 201.3 0 202.8L0 0Z" fill="#363636"></path></g></svg>